<mxfile host="app.diagrams.net" modified="2023-09-28T12:41:39.327Z" agent="Mozilla/5.0 (Windows NT 10.0; Win64; x64) AppleWebKit/537.36 (KHTML, like Gecko) Chrome/117.0.0.0 Safari/537.36 Edg/117.0.2045.43" etag="WLYD4UubIlwy4WHcE3ga" version="21.7.5" type="device">
  <diagram name="Page-1" id="edf60f1a-56cd-e834-aa8a-f176f3a09ee4">
    <mxGraphModel dx="3011" dy="1032" grid="1" gridSize="10" guides="1" tooltips="1" connect="1" arrows="1" fold="1" page="1" pageScale="1" pageWidth="1100" pageHeight="850" background="none" math="0" shadow="0">
      <root>
        <mxCell id="0" />
        <mxCell id="1" parent="0" />
        <mxCell id="IyMY9KR0eBcpEmpJDIFl-8" style="edgeStyle=orthogonalEdgeStyle;rounded=0;orthogonalLoop=1;jettySize=auto;html=1;exitX=0.5;exitY=1;exitDx=0;exitDy=0;entryX=0.464;entryY=-0.006;entryDx=0;entryDy=0;entryPerimeter=0;strokeWidth=3;endArrow=classicThin;endFill=1;" edge="1" parent="1" source="60e70716793133e9-5" target="60e70716793133e9-9">
          <mxGeometry relative="1" as="geometry" />
        </mxCell>
        <mxCell id="IyMY9KR0eBcpEmpJDIFl-21" style="edgeStyle=orthogonalEdgeStyle;rounded=0;orthogonalLoop=1;jettySize=auto;html=1;exitX=0;exitY=0.5;exitDx=0;exitDy=0;entryX=0.5;entryY=0;entryDx=0;entryDy=0;endArrow=classicThin;endFill=1;strokeWidth=3;" edge="1" parent="1" source="60e70716793133e9-5" target="IyMY9KR0eBcpEmpJDIFl-18">
          <mxGeometry relative="1" as="geometry" />
        </mxCell>
        <mxCell id="IyMY9KR0eBcpEmpJDIFl-24" style="edgeStyle=orthogonalEdgeStyle;rounded=0;orthogonalLoop=1;jettySize=auto;html=1;exitX=0;exitY=0.5;exitDx=0;exitDy=0;strokeWidth=3;" edge="1" parent="1" source="60e70716793133e9-5" target="IyMY9KR0eBcpEmpJDIFl-23">
          <mxGeometry relative="1" as="geometry" />
        </mxCell>
        <mxCell id="IyMY9KR0eBcpEmpJDIFl-35" style="edgeStyle=orthogonalEdgeStyle;rounded=0;orthogonalLoop=1;jettySize=auto;html=1;exitX=0;exitY=0.5;exitDx=0;exitDy=0;entryX=0.5;entryY=0;entryDx=0;entryDy=0;strokeWidth=3;endArrow=classicThin;endFill=1;" edge="1" parent="1" source="60e70716793133e9-5" target="IyMY9KR0eBcpEmpJDIFl-34">
          <mxGeometry relative="1" as="geometry" />
        </mxCell>
        <mxCell id="60e70716793133e9-5" value="Start&lt;br&gt;main.py" style="rhombus;whiteSpace=wrap;html=1;rounded=0;shadow=1;labelBackgroundColor=none;strokeWidth=3;fontFamily=Verdana;fontSize=14;align=center;fontStyle=1" parent="1" vertex="1">
          <mxGeometry x="630" y="270" width="150" height="90" as="geometry" />
        </mxCell>
        <mxCell id="IyMY9KR0eBcpEmpJDIFl-9" style="edgeStyle=orthogonalEdgeStyle;rounded=0;orthogonalLoop=1;jettySize=auto;html=1;exitX=0.5;exitY=1;exitDx=0;exitDy=0;entryX=0.5;entryY=0;entryDx=0;entryDy=0;strokeWidth=3;endArrow=classicThin;endFill=1;" edge="1" parent="1" source="60e70716793133e9-9" target="IyMY9KR0eBcpEmpJDIFl-4">
          <mxGeometry relative="1" as="geometry" />
        </mxCell>
        <mxCell id="60e70716793133e9-9" value="Give number of instruments" style="whiteSpace=wrap;html=1;rounded=0;shadow=1;labelBackgroundColor=none;strokeWidth=3;fontFamily=Verdana;fontSize=14;align=center;fontStyle=1" parent="1" vertex="1">
          <mxGeometry x="610" y="400" width="205" height="40" as="geometry" />
        </mxCell>
        <mxCell id="IyMY9KR0eBcpEmpJDIFl-15" style="edgeStyle=orthogonalEdgeStyle;rounded=0;orthogonalLoop=1;jettySize=auto;html=1;exitX=0.5;exitY=1;exitDx=0;exitDy=0;entryX=1;entryY=0.5;entryDx=0;entryDy=0;endArrow=classicThin;endFill=1;strokeWidth=3;" edge="1" parent="1" source="IyMY9KR0eBcpEmpJDIFl-1" target="60e70716793133e9-5">
          <mxGeometry relative="1" as="geometry">
            <Array as="points">
              <mxPoint x="712" y="770" />
              <mxPoint x="950" y="770" />
              <mxPoint x="950" y="315" />
            </Array>
          </mxGeometry>
        </mxCell>
        <mxCell id="IyMY9KR0eBcpEmpJDIFl-16" value="&lt;b&gt;&lt;font style=&quot;font-size: 14px;&quot;&gt;Return connected Instuments&lt;/font&gt;&lt;/b&gt;" style="edgeLabel;html=1;align=center;verticalAlign=middle;resizable=0;points=[];" vertex="1" connectable="0" parent="IyMY9KR0eBcpEmpJDIFl-15">
          <mxGeometry x="0.1494" y="1" relative="1" as="geometry">
            <mxPoint as="offset" />
          </mxGeometry>
        </mxCell>
        <mxCell id="IyMY9KR0eBcpEmpJDIFl-1" value="InstrumentSelect.py" style="shape=trapezoid;whiteSpace=wrap;html=1;rounded=0;shadow=1;labelBackgroundColor=none;strokeWidth=3;fontFamily=Verdana;fontSize=14;align=center;flipV=1;fontStyle=1" vertex="1" parent="1">
          <mxGeometry x="602.5" y="660" width="220" height="70" as="geometry" />
        </mxCell>
        <mxCell id="IyMY9KR0eBcpEmpJDIFl-10" style="edgeStyle=orthogonalEdgeStyle;rounded=0;orthogonalLoop=1;jettySize=auto;html=1;exitX=0.5;exitY=1;exitDx=0;exitDy=0;entryX=0.5;entryY=0;entryDx=0;entryDy=0;endArrow=classicThin;endFill=1;strokeWidth=3;" edge="1" parent="1" source="IyMY9KR0eBcpEmpJDIFl-4" target="IyMY9KR0eBcpEmpJDIFl-5">
          <mxGeometry relative="1" as="geometry" />
        </mxCell>
        <mxCell id="IyMY9KR0eBcpEmpJDIFl-4" value="Select instruments" style="whiteSpace=wrap;html=1;rounded=0;shadow=1;labelBackgroundColor=none;strokeWidth=3;fontFamily=Verdana;fontSize=14;align=center;fontStyle=1" vertex="1" parent="1">
          <mxGeometry x="610" y="480" width="205" height="40" as="geometry" />
        </mxCell>
        <mxCell id="IyMY9KR0eBcpEmpJDIFl-11" style="edgeStyle=orthogonalEdgeStyle;rounded=0;orthogonalLoop=1;jettySize=auto;html=1;exitX=0.5;exitY=1;exitDx=0;exitDy=0;endArrow=classicThin;endFill=1;strokeWidth=3;" edge="1" parent="1" source="IyMY9KR0eBcpEmpJDIFl-5" target="IyMY9KR0eBcpEmpJDIFl-1">
          <mxGeometry relative="1" as="geometry" />
        </mxCell>
        <mxCell id="IyMY9KR0eBcpEmpJDIFl-5" value="Select Folder to save measurment data" style="whiteSpace=wrap;html=1;rounded=0;shadow=1;labelBackgroundColor=none;strokeWidth=3;fontFamily=Verdana;fontSize=14;align=center;fontStyle=1" vertex="1" parent="1">
          <mxGeometry x="610" y="570" width="205" height="40" as="geometry" />
        </mxCell>
        <mxCell id="IyMY9KR0eBcpEmpJDIFl-20" style="edgeStyle=orthogonalEdgeStyle;rounded=0;orthogonalLoop=1;jettySize=auto;html=1;exitX=0.5;exitY=1;exitDx=0;exitDy=0;entryX=0.5;entryY=0;entryDx=0;entryDy=0;endArrow=classicThin;endFill=1;strokeWidth=3;" edge="1" parent="1" source="IyMY9KR0eBcpEmpJDIFl-18" target="IyMY9KR0eBcpEmpJDIFl-19">
          <mxGeometry relative="1" as="geometry" />
        </mxCell>
        <mxCell id="IyMY9KR0eBcpEmpJDIFl-18" value="Performe Measurments" style="whiteSpace=wrap;html=1;rounded=0;shadow=1;labelBackgroundColor=none;strokeWidth=3;fontFamily=Verdana;fontSize=14;align=center;fontStyle=1" vertex="1" parent="1">
          <mxGeometry x="380" y="400" width="205" height="40" as="geometry" />
        </mxCell>
        <mxCell id="IyMY9KR0eBcpEmpJDIFl-19" value="Disconnect Instruments" style="rounded=1;whiteSpace=wrap;html=1;shadow=1;labelBackgroundColor=none;strokeWidth=3;fontFamily=Verdana;fontSize=14;align=center;fontStyle=1" vertex="1" parent="1">
          <mxGeometry x="412.5" y="490" width="140" height="45" as="geometry" />
        </mxCell>
        <mxCell id="IyMY9KR0eBcpEmpJDIFl-26" style="edgeStyle=orthogonalEdgeStyle;rounded=0;orthogonalLoop=1;jettySize=auto;html=1;exitX=0.5;exitY=1;exitDx=0;exitDy=0;entryX=0.5;entryY=0;entryDx=0;entryDy=0;endArrow=classicThin;endFill=1;strokeWidth=3;" edge="1" parent="1" source="IyMY9KR0eBcpEmpJDIFl-23" target="IyMY9KR0eBcpEmpJDIFl-25">
          <mxGeometry relative="1" as="geometry" />
        </mxCell>
        <mxCell id="IyMY9KR0eBcpEmpJDIFl-23" value="Use Pre-Programmed Measurment Functions" style="whiteSpace=wrap;html=1;rounded=0;shadow=1;labelBackgroundColor=none;strokeWidth=3;fontFamily=Verdana;fontSize=14;align=center;fontStyle=1" vertex="1" parent="1">
          <mxGeometry x="100" y="400" width="205" height="40" as="geometry" />
        </mxCell>
        <mxCell id="IyMY9KR0eBcpEmpJDIFl-28" style="edgeStyle=orthogonalEdgeStyle;rounded=0;orthogonalLoop=1;jettySize=auto;html=1;exitX=0.5;exitY=1;exitDx=0;exitDy=0;entryX=0.5;entryY=0;entryDx=0;entryDy=0;endArrow=classicThin;endFill=1;strokeWidth=3;" edge="1" parent="1" source="IyMY9KR0eBcpEmpJDIFl-25" target="IyMY9KR0eBcpEmpJDIFl-27">
          <mxGeometry relative="1" as="geometry" />
        </mxCell>
        <mxCell id="IyMY9KR0eBcpEmpJDIFl-25" value="FunctionCall.py" style="shape=trapezoid;whiteSpace=wrap;html=1;rounded=0;shadow=1;labelBackgroundColor=none;strokeWidth=3;fontFamily=Verdana;fontSize=14;align=center;flipV=1;fontStyle=1" vertex="1" parent="1">
          <mxGeometry x="92.5" y="500" width="220" height="70" as="geometry" />
        </mxCell>
        <mxCell id="IyMY9KR0eBcpEmpJDIFl-30" style="edgeStyle=orthogonalEdgeStyle;rounded=0;orthogonalLoop=1;jettySize=auto;html=1;exitX=0.5;exitY=1;exitDx=0;exitDy=0;entryX=0.5;entryY=0;entryDx=0;entryDy=0;strokeWidth=3;endArrow=classicThin;endFill=1;" edge="1" parent="1" source="IyMY9KR0eBcpEmpJDIFl-27" target="IyMY9KR0eBcpEmpJDIFl-29">
          <mxGeometry relative="1" as="geometry" />
        </mxCell>
        <mxCell id="IyMY9KR0eBcpEmpJDIFl-27" value="Select function&amp;nbsp; from list" style="whiteSpace=wrap;html=1;rounded=0;shadow=1;labelBackgroundColor=none;strokeWidth=3;fontFamily=Verdana;fontSize=14;align=center;fontStyle=1" vertex="1" parent="1">
          <mxGeometry x="100" y="620" width="205" height="40" as="geometry" />
        </mxCell>
        <mxCell id="IyMY9KR0eBcpEmpJDIFl-32" style="edgeStyle=orthogonalEdgeStyle;rounded=0;orthogonalLoop=1;jettySize=auto;html=1;exitX=0.5;exitY=1;exitDx=0;exitDy=0;entryX=1;entryY=0.5;entryDx=0;entryDy=0;endArrow=none;endFill=0;strokeWidth=3;" edge="1" parent="1" source="IyMY9KR0eBcpEmpJDIFl-29" target="60e70716793133e9-5">
          <mxGeometry relative="1" as="geometry">
            <Array as="points">
              <mxPoint x="203" y="800" />
              <mxPoint x="1080" y="800" />
              <mxPoint x="1080" y="315" />
            </Array>
          </mxGeometry>
        </mxCell>
        <mxCell id="IyMY9KR0eBcpEmpJDIFl-33" value="&lt;b&gt;&lt;font style=&quot;font-size: 14px;&quot;&gt;Return Measurment Data&lt;/font&gt;&lt;/b&gt;" style="edgeLabel;html=1;align=center;verticalAlign=middle;resizable=0;points=[];" vertex="1" connectable="0" parent="IyMY9KR0eBcpEmpJDIFl-32">
          <mxGeometry x="-0.2853" y="-2" relative="1" as="geometry">
            <mxPoint as="offset" />
          </mxGeometry>
        </mxCell>
        <mxCell id="IyMY9KR0eBcpEmpJDIFl-29" value="Functions.py" style="shape=trapezoid;whiteSpace=wrap;html=1;rounded=0;shadow=1;labelBackgroundColor=none;strokeWidth=3;fontFamily=Verdana;fontSize=14;align=center;flipV=1;fontStyle=1" vertex="1" parent="1">
          <mxGeometry x="92.5" y="710" width="220" height="70" as="geometry" />
        </mxCell>
        <mxCell id="IyMY9KR0eBcpEmpJDIFl-34" value="Disconnect Instruments" style="rounded=1;whiteSpace=wrap;html=1;shadow=1;labelBackgroundColor=none;strokeWidth=3;fontFamily=Verdana;fontSize=14;align=center;fontStyle=1" vertex="1" parent="1">
          <mxGeometry x="-110" y="397.5" width="140" height="45" as="geometry" />
        </mxCell>
      </root>
    </mxGraphModel>
  </diagram>
</mxfile>
